<svg width="186" height="51" viewBox="0 0 186 51" fill="none" xmlns="http://www.w3.org/2000/svg">
<path fill-rule="evenodd" clip-rule="evenodd" d="M178.289 25.7603C178.289 23.4011 177.825 21.5443 176.896 20.1954C175.968 18.8465 174.641 18.1693 172.915 18.1693C171.19 18.1693 169.852 18.8465 168.907 20.1954C167.962 21.5443 167.487 23.4011 167.487 25.7603C167.487 28.1195 167.962 29.9926 168.907 31.3743C169.852 32.7614 171.19 33.4495 172.915 33.4495C174.641 33.4495 175.968 32.756 176.896 31.3743C177.825 29.9926 178.289 28.1195 178.289 25.7603ZM186 25.7603C186 27.8792 185.694 29.8179 185.088 31.5818C184.482 33.3403 183.597 34.8476 182.45 36.0927C181.298 37.3433 179.922 38.3045 178.316 38.9926C176.711 39.6752 174.909 40.0193 172.915 40.0193C170.955 40.0193 169.169 39.6752 167.563 38.9926C165.958 38.3099 164.576 37.3433 163.429 36.0927C162.277 34.8421 161.381 33.3403 160.742 31.5818C160.098 29.8234 159.776 27.8792 159.776 25.7603C159.776 23.6414 160.104 21.7081 160.764 19.966C161.425 18.2239 162.337 16.7331 163.506 15.5043C164.674 14.2756 166.062 13.3144 167.667 12.6318C169.273 11.9491 171.026 11.6051 172.921 11.6051C174.849 11.6051 176.618 11.9491 178.223 12.6318C179.829 13.3144 181.211 14.2756 182.358 15.5043C183.51 16.7331 184.405 18.2239 185.044 19.966C185.678 21.7081 186 23.6414 186 25.7603ZM144.599 25.7603C144.599 23.4011 144.135 21.5443 143.207 20.1954C142.278 18.8465 140.951 18.1693 139.226 18.1693C137.5 18.1693 136.162 18.8465 135.217 20.1954C134.272 21.5443 133.797 23.4011 133.797 25.7603C133.797 28.1195 134.272 29.9926 135.217 31.3743C136.162 32.7614 137.5 33.4495 139.226 33.4495C140.951 33.4495 142.278 32.756 143.207 31.3743C144.135 29.9926 144.599 28.1195 144.599 25.7603ZM152.31 25.7603C152.31 27.8792 152.005 29.8179 151.398 31.5818C150.792 33.3403 149.908 34.8476 148.761 36.0927C147.608 37.3433 146.232 38.3045 144.627 38.9926C143.021 39.6752 141.219 40.0193 139.226 40.0193C137.265 40.0193 135.479 39.6752 133.874 38.9926C132.268 38.3099 130.887 37.3433 129.74 36.0927C128.593 34.8421 127.692 33.3403 127.053 31.5818C126.408 29.8234 126.086 27.8792 126.086 25.7603C126.086 23.6414 126.414 21.7081 127.075 19.966C127.735 18.2239 128.647 16.7331 129.816 15.5043C130.985 14.2756 132.372 13.3144 133.978 12.6318C135.583 11.9491 137.336 11.6051 139.231 11.6051C141.159 11.6051 142.928 11.9491 144.534 12.6318C146.139 13.3144 147.521 14.2756 148.668 15.5043C149.82 16.7331 150.716 18.2239 151.355 19.966C151.988 21.7081 152.31 23.6414 152.31 25.7603ZM119.637 19.0977C118.959 18.9284 118.168 18.7482 117.25 18.5571C116.338 18.3714 115.355 18.2731 114.307 18.2731C113.831 18.2731 113.269 18.3168 112.608 18.3987C111.947 18.4861 111.45 18.5789 111.112 18.6827V39.2984H103.554V13.7568C104.908 13.2762 106.503 12.8229 108.349 12.3969C110.194 11.971 112.248 11.758 114.514 11.758C114.918 11.758 115.41 11.7853 115.983 11.8344C116.557 11.8836 117.135 11.9546 117.709 12.042C118.282 12.1294 118.861 12.2276 119.435 12.3478C120.008 12.4679 120.5 12.6154 120.904 12.7847L119.637 19.0977ZM77.8755 5.60878L85.4337 4.38003V12.3314H94.5155V18.6881H85.4337V28.1741C85.4337 29.7797 85.7122 31.063 86.2693 32.0187C86.8263 32.9744 87.9513 33.455 89.6442 33.455C90.4579 33.455 91.2935 33.3785 92.1563 33.2256C93.0192 33.0727 93.8056 32.8597 94.5155 32.5867L95.5805 38.5338C94.6685 38.9107 93.6527 39.2329 92.5386 39.5059C91.4246 39.779 90.0538 39.9155 88.4264 39.9155C86.3621 39.9155 84.6528 39.6315 83.3039 39.069C81.955 38.5065 80.8682 37.7201 80.0545 36.7098C79.2408 35.6995 78.6783 34.4817 78.3561 33.0454C78.0339 31.6091 77.8755 30.02 77.8755 28.2779V5.60878ZM58.292 33.8154C59.6791 33.8154 60.6621 33.6789 61.2355 33.4058C61.8089 33.1328 62.0984 32.6031 62.0984 31.8167C62.0984 31.1996 61.727 30.6644 60.9843 30.2002C60.2416 29.736 59.1057 29.2172 57.5875 28.6383C56.4024 28.196 55.3321 27.7318 54.3654 27.2512C53.3988 26.7706 52.5797 26.1972 51.9025 25.5309C51.2253 24.8647 50.701 24.0673 50.3297 23.1444C49.9583 22.2215 49.7726 21.1074 49.7726 19.8131C49.7726 17.2846 50.701 15.2804 52.5633 13.8114C54.4255 12.3423 56.9759 11.6051 60.2252 11.6051C61.8472 11.6051 63.4036 11.7525 64.8945 12.042C66.3853 12.3314 67.5649 12.6482 68.4442 12.9922L67.1226 18.9394C66.2434 18.6335 65.2877 18.3605 64.2555 18.1202C63.2234 17.8799 62.0656 17.7598 60.7822 17.7598C58.4121 17.7598 57.2325 18.426 57.2325 19.7585C57.2325 20.0644 57.2817 20.3374 57.3854 20.5777C57.4892 20.818 57.6913 21.0473 57.9916 21.2712C58.2974 21.4952 58.7125 21.7355 59.2368 21.9867C59.761 22.2433 60.4273 22.5273 61.241 22.8331C62.9012 23.4502 64.2664 24.0564 65.3532 24.6517C66.4345 25.2524 67.2919 25.9023 67.9145 26.6013C68.5425 27.3003 68.9794 28.0813 69.236 28.9332C69.4873 29.7906 69.6183 30.7791 69.6183 31.9095C69.6183 34.5745 68.6299 36.5951 66.6475 37.9604C64.6706 39.3257 61.869 40.0138 58.2483 40.0138C55.8782 40.0138 53.9122 39.8063 52.3394 39.3967C50.7666 38.9871 49.6743 38.643 49.0682 38.37L50.3351 32.1662C51.6185 32.6795 52.9401 33.0782 54.2945 33.3731C55.6379 33.668 56.9704 33.8154 58.292 33.8154ZM41.3462 4.53294C41.3462 5.93645 40.8983 7.03959 40.0027 7.84238C39.1071 8.64516 38.0476 9.04929 36.8298 9.04929C35.612 9.04929 34.5525 8.64516 33.6569 7.84238C32.7613 7.03959 32.3135 5.93645 32.3135 4.53294C32.3135 3.12944 32.7613 2.02629 33.6569 1.22351C34.5525 0.420728 35.612 0.0166016 36.8298 0.0166016C38.0476 0.0166016 39.1071 0.420728 40.0027 1.22351C40.8983 2.02629 41.3462 3.12944 41.3462 4.53294ZM40.6362 39.3039H33.078V12.326H40.6362V39.3039Z" fill="#FFB448"/>
<path d="M185.672 45.0918H160.185V50.2198H185.672V45.0918Z" fill="#FFB448"/>
<path d="M24.5805 25.7928C24.5805 27.9063 24.2692 29.8122 23.6521 31.5216C23.0295 33.2309 22.1339 34.689 20.9652 35.8959C19.7911 37.1028 18.3493 38.0312 16.64 38.6865C14.9307 39.3419 12.9865 39.6641 10.8075 39.6641C9.901 39.6641 8.95622 39.6204 7.96776 39.5385C6.9793 39.4565 6.00722 39.3473 5.05153 39.2108C4.09583 39.0743 3.18383 38.9159 2.31005 38.7357C1.43627 38.55 0.666256 38.3589 0 38.1568V1.20691L7.49265 0V13.1722C8.3282 12.8063 9.20198 12.5169 10.1085 12.3203C11.0151 12.1182 11.9871 12.0199 13.0248 12.0199C14.9034 12.0199 16.5581 12.3476 17.9998 12.9974C19.4416 13.6528 20.6485 14.5812 21.6205 15.7881C22.5926 16.995 23.3299 18.4422 23.8323 20.1351C24.3293 21.8335 24.5805 23.7176 24.5805 25.7928ZM16.9404 25.5908C16.9404 20.7632 15.1655 18.3493 11.6103 18.3493C10.8403 18.3493 10.0758 18.4476 9.32212 18.6497C8.56849 18.8518 7.95684 19.103 7.48719 19.4033V33.0288C7.85308 33.0943 8.32274 33.1544 8.89615 33.2036C9.46411 33.2527 10.0867 33.28 10.7584 33.28C12.8008 33.28 14.3463 32.5755 15.384 31.1666C16.4216 29.7685 16.9404 27.9063 16.9404 25.5908Z" fill="#FFB448"/>
</svg>
