<svg width="34" height="34" viewBox="0 0 34 34" fill="none" xmlns="http://www.w3.org/2000/svg">
<path d="M17 33.739C16.8683 33.739 16.7467 33.6695 16.6797 33.5564L14.927 30.591C11.5029 24.8026 7.96235 18.8167 6.8226 16.529C6.06636 14.9782 5.68359 13.3128 5.68359 11.5768C5.68359 5.33717 10.76 0.260742 17 0.260742C23.2396 0.260742 28.3164 5.33717 28.3164 11.5772C28.3164 13.3121 27.934 14.9774 27.1796 16.5264C27.1752 16.5349 27.1711 16.5431 27.1663 16.5513C26.015 18.855 22.4864 24.8208 19.0731 30.591L17.3203 33.5564C17.2533 33.6695 17.1317 33.739 17 33.739ZM17 1.0047C11.1703 1.0047 6.42756 5.74746 6.42756 11.5772C6.42756 13.1986 6.78466 14.7546 7.48919 16.2009C8.61518 18.4599 12.1471 24.4313 15.563 30.2056L17 32.6361L18.4333 30.2119C21.8506 24.4347 25.3841 18.4607 26.5116 16.1972C26.5149 16.1908 26.5183 16.1849 26.5212 16.1789C27.2187 14.7379 27.5725 13.1897 27.5725 11.5768C27.5725 5.74746 22.8297 1.0047 17 1.0047Z" fill="black"/>
<path d="M17 16.0463C14.2923 16.0463 12.0898 13.8434 12.0898 11.1357C12.0898 8.42809 14.2923 6.22559 17 6.22559C19.7073 6.22559 21.9101 8.42809 21.9101 11.1357C21.9101 13.8434 19.7073 16.0463 17 16.0463ZM17 6.96955C14.7026 6.96955 12.8338 8.83838 12.8338 11.1357C12.8338 13.4331 14.7026 15.3023 17 15.3023C19.2974 15.3023 21.1662 13.4335 21.1662 11.1357C21.1662 8.83838 19.2974 6.96955 17 6.96955Z" fill="black"/>
</svg>
